<svg xmlns="http://www.w3.org/2000/svg" viewBox="0 0 106.96 43.63"><defs><style>.cls-1{fill:#c9cbc2;}</style></defs><title>Asset 9</title><g id="Layer_2" data-name="Layer 2"><g id="Layer_1-2" data-name="Layer 1"><path class="cls-1" d="M5.74,4A3.87,3.87,0,0,1,6.6,6.68a3.88,3.88,0,0,1-.86,2.66,2.94,2.94,0,0,1-2.31,1A2.84,2.84,0,0,1,2.05,10a2.52,2.52,0,0,1-.94-.89v4H0V3.2H1L1,4.41a2.45,2.45,0,0,1,.94-1,2.92,2.92,0,0,1,1.45-.37A3,3,0,0,1,5.74,4ZM4.9,8.61a3,3,0,0,0,.59-1.93A2.94,2.94,0,0,0,4.9,4.76,2,2,0,0,0,3.3,4a2,2,0,0,0-1.59.69,2.78,2.78,0,0,0-.6,1.87v.17a2.74,2.74,0,0,0,.6,1.86,2,2,0,0,0,1.59.7A2,2,0,0,0,4.9,8.61Z"/><path class="cls-1" d="M14.18,4a3.74,3.74,0,0,1,.9,2.66,3.73,3.73,0,0,1-.9,2.66,3.22,3.22,0,0,1-2.47,1,3.22,3.22,0,0,1-2.47-1,3.73,3.73,0,0,1-.9-2.66A3.74,3.74,0,0,1,9.24,4a3.22,3.22,0,0,1,2.47-1A3.22,3.22,0,0,1,14.18,4Zm-4.13.71a3,3,0,0,0-.6,1.95,2.92,2.92,0,0,0,.6,2,2,2,0,0,0,1.66.71,2,2,0,0,0,1.66-.71,2.92,2.92,0,0,0,.6-2,3,3,0,0,0-.6-1.95A2.06,2.06,0,0,0,11.71,4,2.06,2.06,0,0,0,10.05,4.73Z"/><path class="cls-1" d="M17.8,9.91a2.52,2.52,0,0,1-1.19-1.18l.91-.63a1.65,1.65,0,0,0,.82.92,2.87,2.87,0,0,0,1.38.31A2.29,2.29,0,0,0,21,9a.87.87,0,0,0,.43-.74.73.73,0,0,0-.4-.65,4.58,4.58,0,0,0-1.42-.42A7.31,7.31,0,0,1,18,6.79a1.89,1.89,0,0,1-.85-.66,1.69,1.69,0,0,1-.26-1,1.76,1.76,0,0,1,.33-1,2.25,2.25,0,0,1,1-.76,3.47,3.47,0,0,1,1.45-.29,3.46,3.46,0,0,1,1.79.41,2.35,2.35,0,0,1,1,1.26l-.95.56a1.76,1.76,0,0,0-.68-1A2.08,2.08,0,0,0,19.62,4a2.13,2.13,0,0,0-1.16.3.89.89,0,0,0-.47.71.78.78,0,0,0,.41.71,4.37,4.37,0,0,0,1.47.44,4.46,4.46,0,0,1,2.05.71,1.59,1.59,0,0,1,.6,1.33,1.71,1.71,0,0,1-.36,1.07,2.4,2.4,0,0,1-1,.73,4,4,0,0,1-1.53.26A4.08,4.08,0,0,1,17.8,9.91Z"/><path class="cls-1" d="M30.84,9.29l-.07.87a2.3,2.3,0,0,1-.83.14,1.39,1.39,0,0,1-.86-.23,1.18,1.18,0,0,1-.4-.8,2,2,0,0,1-.94.76,3.19,3.19,0,0,1-1.3.27,2.87,2.87,0,0,1-1.7-.48,1.6,1.6,0,0,1-.66-1.38,1.73,1.73,0,0,1,.69-1.37,4.14,4.14,0,0,1,2-.8L28.64,6V5.57a1.45,1.45,0,0,0-.43-1.11A1.66,1.66,0,0,0,27,4a2.16,2.16,0,0,0-1.2.33,2.2,2.2,0,0,0-.79,1l-.82-.6a2.37,2.37,0,0,1,1-1.24A3.4,3.4,0,0,1,27,3.06a3.09,3.09,0,0,1,2,.6,2.11,2.11,0,0,1,.76,1.77V8.86a.51.51,0,0,0,.12.37.55.55,0,0,0,.41.13A2.59,2.59,0,0,0,30.84,9.29ZM28,8.91a1.26,1.26,0,0,0,.63-1.08v-1l-1.56.3a3.66,3.66,0,0,0-1.39.48.92.92,0,0,0-.46.8.73.73,0,0,0,.34.66,1.64,1.64,0,0,0,.93.23A2.67,2.67,0,0,0,28,8.91Z"/><path class="cls-1" d="M38.64,0V10.16h-1L37.6,9a2.42,2.42,0,0,1-.94,1,3.2,3.2,0,0,1-3.76-.6A3.88,3.88,0,0,1,32,6.68,3.87,3.87,0,0,1,32.9,4a3,3,0,0,1,2.31-1,2.74,2.74,0,0,1,1.38.34,2.52,2.52,0,0,1,.94.89V0ZM36.93,8.63a2.74,2.74,0,0,0,.6-1.86V6.6a2.78,2.78,0,0,0-.6-1.87A2,2,0,0,0,35.34,4a2,2,0,0,0-1.6.72,2.94,2.94,0,0,0-.59,1.92,3,3,0,0,0,.59,1.93,2.15,2.15,0,0,0,3.19,0Z"/><path class="cls-1" d="M47.5,9.29l-.07.87a2.32,2.32,0,0,1-.84.14,1.39,1.39,0,0,1-.86-.23,1.17,1.17,0,0,1-.39-.8,2.11,2.11,0,0,1-.94.76,3.26,3.26,0,0,1-1.3.27,2.83,2.83,0,0,1-1.7-.48,1.59,1.59,0,0,1-.67-1.38,1.71,1.71,0,0,1,.7-1.37,4.06,4.06,0,0,1,2-.8L45.3,6V5.57a1.46,1.46,0,0,0-.44-1.11A1.61,1.61,0,0,0,43.67,4a2.17,2.17,0,0,0-1.21.33,2.12,2.12,0,0,0-.78,1l-.83-.6a2.41,2.41,0,0,1,1-1.24,3.44,3.44,0,0,1,1.78-.46,3.11,3.11,0,0,1,2,.6,2.13,2.13,0,0,1,.75,1.77V8.86a.48.48,0,0,0,.13.37.51.51,0,0,0,.4.13A2.77,2.77,0,0,0,47.5,9.29Zm-2.84-.38a1.27,1.27,0,0,0,.64-1.08v-1l-1.56.3a3.65,3.65,0,0,0-1.4.48,1,1,0,0,0-.46.8.76.76,0,0,0,.34.66,1.64,1.64,0,0,0,.93.23A2.65,2.65,0,0,0,44.66,8.91Z"/><path class="cls-1" d="M17.45,43.29H15.31l-12-17.83-1.69-3h0l.1,2.86v18H0V20.58H2.17l12,17.79,1.72,3.06-.07-2.86v-18h1.62Z"/><path class="cls-1" d="M39.18,21.66a9.44,9.44,0,0,1,3.63,4.06,14.14,14.14,0,0,1,1.27,6.21,14.08,14.08,0,0,1-1.27,6.21,9.47,9.47,0,0,1-3.63,4.07,10.52,10.52,0,0,1-5.56,1.42,10.51,10.51,0,0,1-5.55-1.42,9.42,9.42,0,0,1-3.64-4.07,14.22,14.22,0,0,1-1.27-6.21,14.28,14.28,0,0,1,1.27-6.21,9.4,9.4,0,0,1,3.64-4.06,10.52,10.52,0,0,1,5.55-1.43A10.53,10.53,0,0,1,39.18,21.66ZM29,23a7.86,7.86,0,0,0-3,3.51A12.78,12.78,0,0,0,25,31.93,12.83,12.83,0,0,0,26,37.32a8,8,0,0,0,3,3.51,8.48,8.48,0,0,0,4.59,1.22,8.55,8.55,0,0,0,4.61-1.22,8,8,0,0,0,3-3.51,12.83,12.83,0,0,0,1-5.39,12.78,12.78,0,0,0-1-5.38,7.84,7.84,0,0,0-3-3.51,8.47,8.47,0,0,0-4.61-1.23A8.4,8.4,0,0,0,29,23Z"/><path class="cls-1" d="M64.84,43.29l-6.51-9.84H51.52v9.84H49.8V20.58h8.43a8,8,0,0,1,5.42,1.72,5.87,5.87,0,0,1,2,4.71,6,6,0,0,1-1.44,4.11,6.84,6.84,0,0,1-4,2.12l6.61,10ZM51.52,31.83h6.67a6.34,6.34,0,0,0,4.22-1.24A4.42,4.42,0,0,0,63.87,27a4.48,4.48,0,0,0-1.46-3.6,6.34,6.34,0,0,0-4.22-1.25H51.52Z"/><path class="cls-1" d="M86.55,22.16H78.26V43.29H76.54V22.16h-8.3V20.58H86.55Z"/><path class="cls-1" d="M107,41.71v1.58H90.89V20.58h15.52v1.58H92.61v8.77h10.91v1.62H92.61v9.16Z"/></g></g></svg>
